<svg width="220" height="94" viewBox="0 0 220 94" class="css-1j8o68f">
<defs id="SvgjsDefs3497"></defs>
<g id="SvgjsG3498" featurekey="nameLeftFeature-0" transform="matrix(2.442333823541781,0,0,2.442333823541781,0,15.860241420651253)" fill="#8f87ff">
    <path 
        d="M2.74 20.12 c-1.52 0 -2.74 -1.24 -2.74 -2.74 l0 -2.18 l1.94 0 l0 2.18 c0 0.44 0.36 0.8 0.8 0.8 s0.78 -0.36 0.78 -0.8 l0 -1.9 l-3.52 -4.86 l0 -2.48 c0 -1.52 1.22 -2.76 2.74 -2.76 c1.5 0 2.72 1.24 2.72 2.76 l0 2.16 l-1.94 0 l0 -2.16 c0 -0.46 -0.34 -0.8 -0.78 -0.8 s-0.8 0.34 -0.8 0.8 l0 1.82 l3.52 4.86 l0 2.56 c0 1.5 -1.22 2.74 -2.72 2.74 z M11.574 19.92 l-2.1 -7.88 l-0.3 0.5 l0 7.44 l-1.86 0 l0 -14.26 l1.86 0 l0 3.1 l1.24 -3.1 l2.3 0 l-1.9 4.12 l2.7 10.08 l-1.94 0 z M17.268 5.68 l0 14.24 l-1.9 0 l0 -14.24 l1.9 0 z">
    </path>
</g>
<g id="SvgjsG3499" featurekey="inlineSymbolFeature-0" transform="matrix(1.2223824433862054,0,0,1.2223824433862054,22.40442677720278,-14.139119837800786)" fill="#8f87ff">
    <g xmlns="http://www.w3.org/2000/svg">
    <path 
        d="M65.6614456,77.9631729l-5.6499672-14.3699951l-5.0400391-12.8500366L66.31147,21.873148v-0.0100098l0.3599854-0.9099731   l-0.0299683,0.0100098c0.8799438-2.5800171,2.1499634-7.7800293-1.3600464-9.1600342   c-0.8499756-0.3399658-1.7699623-0.3099976-2.6499672,0.0700073c-2.6199951,1.1500244-4.4400024,5.3599854-4.9400024,6.6199951   l-7.6900024,19.6000347l-0.2999878-0.75l-7.4000244-18.8500347c-0.4899902-1.2600098-2.3200073-5.4699707-4.9400024-6.6199951   c-0.8800049-0.3800049-1.789978-0.4099731-2.6500244-0.0700073c-1.2599487,0.4899902-2.6699829,1.8300171-2.2399902,5.4200439   c0.1700439,1.4199829,0.5800171,2.8199463,0.8900146,3.7399902l-0.0300293-0.0100098l5.6400146,14.3599834l6.0599976,15.4299927   l-5.039978,12.8500366l-5.6500244,14.3699951l-1.6300049,4.1499634c-0.9299927,2.3699951,0.2400513,5.0599976,2.6199951,6   c0.5500488,0.210022,1.1200562,0.3200073,1.6800537,0.3200073c1.8499756,0,3.5999756-1.1199951,4.3099976-2.9400024   l5.0099487-12.7600098l3.6700439-9.3299561l3.6599731,9.3299561l5.0100098,12.7600098   c0.4500122,1.1500244,1.3300171,2.0499878,2.460022,2.5499878c0.5899658,0.2600098,1.2199707,0.3900146,1.8499756,0.3900146   c0.5700073,0,1.1400185-0.1099854,1.6900063-0.3200073c2.3699951-0.9400024,3.5499878-3.6300049,2.6099854-6L65.6614456,77.9631729   z M60.4914589,19.5831699c0.7999878-2.0400391,2.25-4.4799805,3.3399658-4.960022   c0.2100258-0.0899658,0.3000526-0.0499878,0.3600502-0.0299683c0.7000122,0.2799683,0.5599976,3.039978-0.6799965,6.1799927   l-0.7300415,1.8699951l-4.2199707,1.8399658L60.4914589,19.5831699z M52.9214516,38.8431778l4.2200317-1.8300171   l-2.8600464,7.2700195c-0.3399658-0.4700317-0.8099976-0.8600464-1.3800049-1.0800171   c-0.3200073-0.1300049-0.6399536-0.1799927-0.9699707-0.2000122l-0.3200073-0.8099976L52.9214516,38.8431778z    M36.4814491,20.7731724c-0.1300049-0.3400269-0.8200073-2.1600342-1.0299683-3.9100342   c-0.1500244-1.2199707,0-2.1300049,0.3599854-2.2699585c0.0299683-0.0100098,0.0599976-0.0300293,0.1199951-0.0300293   s0.1300049,0.0200195,0.2399902,0.0599976c1.0999756,0.4899902,2.5100098,2.8699951,3.3400269,4.960022l1.9199829,4.8999634   l-4.210022-1.8399658L36.4814491,20.7731724z M42.861454,37.0131607l4.210022,1.8300171l1.6499634,4.1900024   c-0.5299683-0.0800171-1.0899658-0.0400391-1.6199951,0.1699829c-0.5800171,0.2199707-1.0499878,0.6099854-1.3900146,1.0800171   L42.861454,37.0131607z M38.5314369,84.3931656c-0.3299561,0.8399658-1.2699585,1.25-2.1099854,0.9199829   c-0.8300171-0.3200073-1.2399902-1.2700195-0.9099731-2.0999756l2.7199707-6.9400024l4.210022-1.8400269L38.5314369,84.3931656z    M48.0914345,60.0631485l-4.2199707,1.8300171l1.4500122-3.6699829c0.3299561,0.4299927,0.7699585,0.7699585,1.289978,0.9799805   c0.3800049,0.1400146,0.7600098,0.210022,1.1400146,0.210022c0.2099609,0,0.4199829-0.0300293,0.6199951-0.0700073   L48.0914345,60.0631485z M51.6314735,59.3431778c0.1999512,0.039978,0.4099731,0.0700073,0.6199951,0.0700073   c0.3800049,0,0.7600098-0.0700073,1.1300049-0.210022h0.0100098c0.5299683-0.210022,0.9599609-0.5599976,1.289978-0.9799805   l1.4400024,3.6699829l-4.210022-1.8300171L51.6314735,59.3431778z M63.571476,85.3131485   c-0.4000244,0.1600342-0.8400269,0.1500244-1.2400513-0.0200195c-0.3999634-0.1699829-0.7099609-0.4899902-0.8599854-0.8999634   l-3.9199829-9.960022l4.2199707,1.8400269l2.7200356,6.9400024C64.8214798,84.043129,64.4114456,84.9931412,63.571476,85.3131485z">
    </path>
    </g>
</g>
<g id="SvgjsG3500" featurekey="nameRightFeature-0" transform="matrix(2.503476865507526,0,0,2.503476865507526,112.84812306562631,14.830321323227656)" fill="#8f87ff">
    <path 
        d="M6.754 17 l0 2.98 l-1.9 0 l0 -14.26 l2.96 0 c1.32 0 2.38 1.08 2.38 2.4 l0 6.5 c0 1.32 -1.06 2.38 -2.38 2.38 l-1.06 0 z M6.754 7.619999999999999 l0 7.48 l1.06 0 c0.28 0 0.48 -0.2 0.48 -0.48 l0 -6.5 c0 -0.28 -0.2 -0.5 -0.48 -0.5 l-1.06 0 z M14.748000000000001 20.02 c-1.5 0 -2.7 -1.22 -2.7 -2.7 l0 -8.98 c0 -1.48 1.2 -2.68 2.7 -2.68 c1.48 0 2.68 1.2 2.68 2.68 l0 8.98 c0 1.48 -1.2 2.7 -2.68 2.7 z M14.748000000000001 7.5600000000000005 c-0.44 0 -0.78 0.36 -0.78 0.78 l0 8.98 c0 0.44 0.34 0.78 0.78 0.78 c0.42 0 0.78 -0.34 0.78 -0.78 l0 -8.98 c0 -0.42 -0.36 -0.78 -0.78 -0.78 z M26.802 5.720000000000001 l1.92 0 l-1.86 14.28 l-1.98 0 l-1 -7.16 l-0.94 7.16 l-1.98 0 l-2 -14.28 l1.92 0 l1.04 7.36 l0.96 -7.36 l1.92 0 l1.04 7.36 z M35.236000000000004 12.46 l-2.76 0 l0 5.64 l2.78 0 l0 1.9 l-4.68 0 l0 -14.28 l4.68 0 l0 1.9 l-2.78 0 l0 2.94 l2.76 0 l0 1.9 z M42.59 20.04 l-2.04 0 l-1.1 -3.02 l-0.44 0 l0 3.02 l-1.9 0 l0 -14.32 l2.98 0 c1.32 0 2.38 1.06 2.38 2.38 l0 6.54 c0 0.86 -0.44 1.6 -1.12 2.02 z M39.01 7.619999999999999 l0 7.5 l1.08 0 c0.26 0 0.48 -0.22 0.48 -0.48 l0 -6.54 c0 -0.26 -0.22 -0.48 -0.48 -0.48 l-1.08 0 z">
    </path>
</g>
</svg>